#!OML:ASF X:\für Bonn\!DataBase\2005_08_11_Bastian_Final\c3d\Bastian.ASF
:FULLY-SPECIFIED
:DEGREES
48
root 3.97636 23.2128 -10.6478 719.643 2.00231 -4.0628
lowerback 6.69694 -2.4004 0.184355
upperback 1.69603 -3.1706 0.396067
thorax -1.98826 -1.58089 0.56616
lowerneck -14.5177 -3.5695 -1.4277
upperneck 5.89945 -5.3288 8.30462
head 4.40084 -2.15973 2.37467
rclavicle -1.45113e-014 -3.57812e-015
rhumerus -62.4031 18.5276 -82.9534
rradius 127.118
rwrist 2.4166
rhand -7.32619 27.6723
rfingers 7.12502
rthumb 18.5571 -1.4626
lclavicle -1.45113e-014 -3.57812e-015
lhumerus -44.8179 -4.96335 74.6343
lradius 134.415
lwrist 218.729
lhand -28.6713 15.4025
lfingers 7.12502
lthumb -2.0343 45.3726
rfemur -16.4695 -0.71063 25.9491
rtibia 43.1962
rfoot 8.35508 -7.06964
rtoes -3.59455
lfemur -14.4989 2.9832 -14.3759
ltibia 35.6165
lfoot 9.34458 -1.95871
ltoes -32.1707
49
root 3.96693 23.1881 -10.4747 719.572 2.00666 -4.0085
lowerback 7.34313 -2.41472 0.178001
upperback 1.74703 -3.18594 0.403396
thorax -2.29385 -1.58712 0.60759
lowerneck -14.281 -3.55583 -1.38872
upperneck 5.72109 -5.31057 8.3813
head 4.30843 -2.15644 2.39718
rclavicle 3.64273e-014 -2.82274e-014
rhumerus -62.9128 18.0705 -83.6837
rradius 126.133
rwrist 2.64922
rhand -7.64909 27.7553
rfingers 7.12502
rthumb 18.2465 -1.40893
lclavicle 3.64273e-014 -2.82274e-014
lhumerus -45.4153 -4.31337 74.8881
lradius 133.077
lwrist 218.364
lhand -28.7283 15.199
lfingers 7.12502
lthumb -2.08933 45.1685
rfemur -17.0316 -0.44905 25.6265
rtibia 43.1593
rfoot 7.65993 -7.38704
rtoes -4.65445
lfemur -14.8572 2.76582 -14.4257
ltibia 35.211
lfoot 9.2585 -2.02881
ltoes -32.0699
50
root 3.95852 23.1546 -10.3005 719.487 1.9543 -4.0468
lowerback 7.98574 -2.40384 0.278911
upperback 1.78205 -3.15801 0.440551
thorax -2.61801 -1.57215 0.616152
lowerneck -14.0377 -3.55216 -1.38044
upperneck 5.59525 -5.30237 8.44615
head 4.232 -2.15825 2.41997
rclavicle -2.20154e-014 -1.07344e-014
rhumerus -63.4425 17.5512 -84.246
rradius 125.237
rwrist 2.7207
rhand -7.77536 27.847
rfingers 7.12502
rthumb 18.125 -1.32854
lclavicle -2.20154e-014 -1.07344e-014
lhumerus -46.0847 -3.71153 75.1959
lradius 131.576
lwrist 217.827
lhand -28.7703 14.8663
lfingers 7.12502
lthumb -2.12988 44.8354
rfemur -17.562 -0.156369 25.3993
rtibia 43.1571
rfoot 6.9516 -7.45612
rtoes -5.89411
lfemur -15.2347 2.53466 -14.37
ltibia 34.8763
lfoot 9.17685 -2.05966
ltoes -31.9232
51
root 3.95058 23.1119 -10.1261 719.427 1.94389 -4.05006
lowerback 8.55285 -2.42076 0.349407
upperback 1.83835 -3.16883 0.473306
thorax -2.87625 -1.5766 0.636791
lowerneck -13.8016 -3.54695 -1.39654
upperneck 5.38861 -5.28417 8.54048
head 4.13306 -2.15642 2.45684
rclavicle 2.89232e-014 1.31198e-014
rhumerus -63.8765 17.0903 -84.7347
rradius 124.32
rwrist 2.70279
rhand -7.98321 27.9266
rfingers 7.12502
rthumb 17.925 -1.2673
lclavicle 2.89232e-014 1.31198e-014
lhumerus -46.6352 -3.04414 75.4621
lradius 129.926
lwrist 217.064
lhand -28.7039 14.8814
lfingers 7.12502
lthumb -2.06576 44.8511
rfemur -18.1192 0.0851117 25.1232
rtibia 43.1742
rfoot 6.30974 -7.30806
rtoes -7.70715
lfemur -15.6881 2.35259 -14.3662
ltibia 34.6224
lfoot 9.14407 -2.19746
ltoes -31.7055
52
root 3.94233 23.0587 -9.95133 719.426 1.94069 -4.08655
lowerback 9.04891 -2.42909 0.456054
upperback 1.8667 -3.16409 0.510726
thorax -3.1255 -1.57368 0.637973
lowerneck -13.5044 -3.54969 -1.37913
upperneck 5.12058 -5.27343 8.59854
head 4.00386 -2.1631 2.47752
rclavicle 1.41137e-014 -3.97569e-016
rhumerus -64.3161 16.5465 -85.212
rradius 123.325
rwrist 2.68929
rhand -7.61628 27.4245
rfingers 7.12502
rthumb 18.278 -1.7367
lclavicle 1.41137e-014 -3.97569e-016
lhumerus -47.1531 -2.38471 75.6409
lradius 128.325
lwrist 216.143
lhand -28.6221 14.886
lfingers 7.12502
lthumb -1.98678 44.8565
rfemur -18.7403 0.266641 24.887
rtibia 43.2073
rfoot 5.76321 -6.96365
rtoes -9.55356
lfemur -16.2614 2.15311 -14.3153
ltibia 34.4641
lfoot 9.12078 -2.35769
ltoes -31.3386
53
root 3.93549 22.9928 -9.77743 719.457 1.95302 -4.09453
lowerback 9.49082 -2.44958 0.549737
upperback 1.89764 -3.17599 0.547951
thorax -3.34108 -1.57914 0.645592
lowerneck -13.26 -3.54758 -1.43774
upperneck 4.85112 -5.25021 8.73406
head 3.88678 -2.15996 2.53463
rclavicle 2.6339e-014 -1.27222e-014
rhumerus -64.5633 16.0376 -85.6536
rradius 122.13
rwrist 2.69829
rhand -7.21797 26.7668
rfingers 7.12502
rthumb 18.6612 -2.35809
lclavicle 2.6339e-014 -1.27222e-014
lhumerus -47.5115 -1.70555 75.8197
lradius 126.587
lwrist 215.016
lhand -28.4712 15.1896
lfingers 7.12502
lthumb -1.84098 45.1614
rfemur -19.4005 0.444685 24.6102
rtibia 43.2566
rfoot 5.40279 -6.50575
rtoes -10.6111
lfemur -16.9009 1.93729 -14.3109
ltibia 34.394
lfoot 9.11814 -2.56071
ltoes -31.0455
